<svg xmlns="http://www.w3.org/2000/svg" xmlns:xlink="http://www.w3.org/1999/xlink" width="633" height="674" contentStyleType="text/css" preserveAspectRatio="none" style="width:633px;height:674px;background:#fff" version="1.1" viewBox="0 0 633 674" zoomAndPan="magnify"><g><rect width="10" height="591.125" x="200" fill="gold" style="stroke:#181818;stroke-width:1" y="67.43"/><rect width="10" height="58.266" x="404" fill="gray" style="stroke:#181818;stroke-width:1" y="120.695"/><rect width="10" height="29.133" x="487" fill="#00F" style="stroke:#181818;stroke-width:1" y="208.094"/><rect width="10" height="30" x="487" fill="#00F" style="stroke:#181818;stroke-width:1" y="440.023"/><rect width="10" height="29.133" x="572.5" fill="green" style="stroke:#181818;stroke-width:1" y="308.492"/><rect width="10" height="30" x="572.5" fill="green" style="stroke:#181818;stroke-width:1" y="541.289"/><rect width="474.5" height="305.328" x="153" fill="none" style="stroke:#000;stroke-width:1.5" y="82.43"/><rect width="474.5" height="219.664" x="153" fill="none" style="stroke:#000;stroke-width:1.5" y="401.758"/><line style="stroke:#181818;stroke-width:.5;stroke-dasharray:5,5" x1="205" x2="205" y1="36.297" y2="667.555"/><line style="stroke:#181818;stroke-width:.5;stroke-dasharray:5,5" x1="409" x2="409" y1="36.297" y2="667.555"/><line style="stroke:#181818;stroke-width:.5;stroke-dasharray:5,5" x1="491.5" x2="491.5" y1="36.297" y2="667.555"/><line style="stroke:#181818;stroke-width:.5;stroke-dasharray:5,5" x1="577.5" x2="577.5" y1="36.297" y2="667.555"/><rect width="84" height="30.297" x="163" y="5" fill="#E2E2F0" rx="2.5" ry="2.5" style="stroke:#181818;stroke-width:.5"/><text x="170" y="24.995" fill="#000" font-family="sans-serif" font-size="14" lengthAdjust="spacing" textLength="70">EntryPoint</text><rect width="64" height="30.297" x="377" y="5" fill="#E2E2F0" rx="2.5" ry="2.5" style="stroke:#181818;stroke-width:.5"/><text x="384" y="24.995" fill="#000" font-family="sans-serif" font-size="14" lengthAdjust="spacing" textLength="50">Factory</text><rect width="71" height="30.297" x="456.5" y="5" fill="#E2E2F0" rx="2.5" ry="2.5" style="stroke:#181818;stroke-width:.5"/><text x="463.5" y="24.995" fill="#000" font-family="sans-serif" font-size="14" lengthAdjust="spacing" textLength="57">Account</text><rect width="80" height="30.297" x="537.5" y="5" fill="#E2E2F0" rx="2.5" ry="2.5" style="stroke:#181818;stroke-width:.5"/><text x="544.5" y="24.995" fill="#000" font-family="sans-serif" font-size="14" lengthAdjust="spacing" textLength="66">Account2</text><rect width="10" height="591.125" x="200" fill="gold" style="stroke:#181818;stroke-width:1" y="67.43"/><rect width="10" height="58.266" x="404" fill="gray" style="stroke:#181818;stroke-width:1" y="120.695"/><rect width="10" height="29.133" x="487" fill="#00F" style="stroke:#181818;stroke-width:1" y="208.094"/><rect width="10" height="30" x="487" fill="#00F" style="stroke:#181818;stroke-width:1" y="440.023"/><rect width="10" height="29.133" x="572.5" fill="green" style="stroke:#181818;stroke-width:1" y="308.492"/><rect width="10" height="30" x="572.5" fill="green" style="stroke:#181818;stroke-width:1" y="541.289"/><polygon fill="#181818" points="188 63.43 198 67.43 188 71.43 192 67.43" style="stroke:#181818;stroke-width:1"/><line style="stroke:#181818;stroke-width:1" x1="0" x2="194" y1="67.43" y2="67.43"/><text x="7" y="62.364" fill="#000" font-family="sans-serif" font-size="13" font-weight="bold" lengthAdjust="spacing" textLength="9">1</text><text x="20" y="62.364" fill="#000" font-family="sans-serif" font-size="13" lengthAdjust="spacing" textLength="145">handleOps(userOps[]):</text><path fill="#EEE" d="M153,82.4297 L280,82.4297 L280,89.5625 L270,99.5625 L153,99.5625 L153,82.4297" style="stroke:#000;stroke-width:1.5"/><rect width="474.5" height="305.328" x="153" fill="none" style="stroke:#000;stroke-width:1.5" y="82.43"/><text x="168" y="95.497" fill="#000" font-family="sans-serif" font-size="13" font-weight="bold" lengthAdjust="spacing" textLength="82">Validations</text><polygon fill="#181818" points="392 116.695 402 120.695 392 124.695 396 120.695" style="stroke:#181818;stroke-width:1"/><line style="stroke:#181818;stroke-width:1" x1="210" x2="398" y1="120.695" y2="120.695"/><text x="217" y="115.629" fill="#000" font-family="sans-serif" font-size="13" font-weight="bold" lengthAdjust="spacing" textLength="9">2</text><text x="230" y="115.629" fill="#000" font-family="sans-serif" font-size="13" lengthAdjust="spacing" textLength="107">create (initCode)</text><ellipse cx="491.5" cy="149.078" fill="none" rx="4" ry="4" style="stroke:#181818;stroke-width:1.5"/><polygon fill="#181818" points="474.5 145.828 484.5 149.828 474.5 153.828 478.5 149.828" style="stroke:#181818;stroke-width:1"/><line style="stroke:#181818;stroke-width:1" x1="414" x2="480.5" y1="149.828" y2="149.828"/><text x="421" y="144.762" fill="#000" font-family="sans-serif" font-size="13" font-weight="bold" lengthAdjust="spacing" textLength="9">3</text><text x="434" y="144.762" fill="#000" font-family="sans-serif" font-size="13" lengthAdjust="spacing" textLength="41">create</text><polygon fill="#181818" points="221 174.961 211 178.961 221 182.961 217 178.961" style="stroke:#181818;stroke-width:1"/><line style="stroke:#181818;stroke-width:1;stroke-dasharray:2,2" x1="215" x2="408" y1="178.961" y2="178.961"/><text x="227" y="173.895" fill="#000" font-family="sans-serif" font-size="13" font-weight="bold" lengthAdjust="spacing" textLength="9">4</text><text x="240" y="173.895" fill="#000" font-family="sans-serif" font-size="13" lengthAdjust="spacing" textLength="51">account</text><polygon fill="#181818" points="475 204.094 485 208.094 475 212.094 479 208.094" style="stroke:#181818;stroke-width:1"/><line style="stroke:#181818;stroke-width:1" x1="210" x2="481" y1="208.094" y2="208.094"/><text x="217" y="203.028" fill="#000" font-family="sans-serif" font-size="13" font-weight="bold" lengthAdjust="spacing" textLength="9">5</text><text x="234" y="203.028" fill="#00F" font-family="sans-serif" font-size="13" lengthAdjust="spacing" textLength="98">validateUserOp</text><polygon fill="#181818" points="221 233.227 211 237.227 221 241.227 217 237.227" style="stroke:#181818;stroke-width:1"/><line style="stroke:#181818;stroke-width:1;stroke-dasharray:2,2" x1="215" x2="491" y1="237.227" y2="237.227"/><text x="227" y="232.161" fill="#000" font-family="sans-serif" font-size="13" font-weight="bold" lengthAdjust="spacing" textLength="9">6</text><text x="240" y="232.161" fill="#000" font-family="sans-serif" font-size="13" lengthAdjust="spacing" textLength="47">deposit</text><line style="stroke:#181818;stroke-width:1" x1="210" x2="252" y1="266.359" y2="266.359"/><line style="stroke:#181818;stroke-width:1" x1="252" x2="252" y1="266.359" y2="279.359"/><line style="stroke:#181818;stroke-width:1" x1="211" x2="252" y1="279.359" y2="279.359"/><polygon fill="#181818" points="221 275.359 211 279.359 221 283.359 217 279.359" style="stroke:#181818;stroke-width:1"/><text x="217" y="261.293" fill="#000" font-family="sans-serif" font-size="13" font-weight="bold" lengthAdjust="spacing" textLength="9">7</text><text x="230" y="261.293" fill="#000" font-family="sans-serif" font-size="13" lengthAdjust="spacing" textLength="150">deduct account deposit</text><polygon fill="#181818" points="560.5 304.492 570.5 308.492 560.5 312.492 564.5 308.492" style="stroke:#181818;stroke-width:1"/><line style="stroke:#181818;stroke-width:1" x1="210" x2="566.5" y1="308.492" y2="308.492"/><text x="217" y="303.426" fill="#000" font-family="sans-serif" font-size="13" font-weight="bold" lengthAdjust="spacing" textLength="9">8</text><text x="234" y="303.426" fill="green" font-family="sans-serif" font-size="13" lengthAdjust="spacing" textLength="98">validateUserOp</text><polygon fill="#181818" points="221 333.625 211 337.625 221 341.625 217 337.625" style="stroke:#181818;stroke-width:1"/><line style="stroke:#181818;stroke-width:1;stroke-dasharray:2,2" x1="215" x2="576.5" y1="337.625" y2="337.625"/><text x="227" y="332.559" fill="#000" font-family="sans-serif" font-size="13" font-weight="bold" lengthAdjust="spacing" textLength="9">9</text><text x="240" y="332.559" fill="#000" font-family="sans-serif" font-size="13" lengthAdjust="spacing" textLength="47">deposit</text><line style="stroke:#181818;stroke-width:1" x1="210" x2="252" y1="366.758" y2="366.758"/><line style="stroke:#181818;stroke-width:1" x1="252" x2="252" y1="366.758" y2="379.758"/><line style="stroke:#181818;stroke-width:1" x1="211" x2="252" y1="379.758" y2="379.758"/><polygon fill="#181818" points="221 375.758 211 379.758 221 383.758 217 379.758" style="stroke:#181818;stroke-width:1"/><text x="217" y="361.692" fill="#000" font-family="sans-serif" font-size="13" font-weight="bold" lengthAdjust="spacing" textLength="18">10</text><text x="239" y="361.692" fill="#000" font-family="sans-serif" font-size="13" lengthAdjust="spacing" textLength="158">deduct account2 deposit</text><path fill="#EEE" d="M153,401.7578 L277,401.7578 L277,408.8906 L267,418.8906 L153,418.8906 L153,401.7578" style="stroke:#000;stroke-width:1.5"/><rect width="474.5" height="219.664" x="153" fill="none" style="stroke:#000;stroke-width:1.5" y="401.758"/><text x="168" y="414.825" fill="#000" font-family="sans-serif" font-size="13" font-weight="bold" lengthAdjust="spacing" textLength="79">Executions</text><polygon fill="#181818" points="475 436.023 485 440.023 475 444.023 479 440.023" style="stroke:#181818;stroke-width:1"/><line style="stroke:#181818;stroke-width:1" x1="210" x2="481" y1="440.023" y2="440.023"/><text x="217" y="434.957" fill="#000" font-family="sans-serif" font-size="13" font-weight="bold" lengthAdjust="spacing" textLength="18">11</text><text x="243" y="434.957" fill="#00F" font-family="sans-serif" font-size="13" lengthAdjust="spacing" textLength="30">exec</text><line style="stroke:#181818;stroke-width:1" x1="210" x2="252" y1="499.156" y2="499.156"/><line style="stroke:#181818;stroke-width:1" x1="252" x2="252" y1="499.156" y2="512.156"/><line style="stroke:#181818;stroke-width:1" x1="211" x2="252" y1="512.156" y2="512.156"/><polygon fill="#181818" points="221 508.156 211 512.156 221 516.156 217 512.156" style="stroke:#181818;stroke-width:1"/><text x="217" y="494.09" fill="#000" font-family="sans-serif" font-size="13" font-weight="bold" lengthAdjust="spacing" textLength="18">12</text><text x="239" y="494.09" fill="#000" font-family="sans-serif" font-size="13" lengthAdjust="spacing" textLength="104">refund account1</text><polygon fill="#181818" points="560.5 537.289 570.5 541.289 560.5 545.289 564.5 541.289" style="stroke:#181818;stroke-width:1"/><line style="stroke:#181818;stroke-width:1" x1="210" x2="566.5" y1="541.289" y2="541.289"/><text x="217" y="536.223" fill="#000" font-family="sans-serif" font-size="13" font-weight="bold" lengthAdjust="spacing" textLength="18">13</text><text x="243" y="536.223" fill="green" font-family="sans-serif" font-size="13" lengthAdjust="spacing" textLength="30">exec</text><line style="stroke:#181818;stroke-width:1" x1="210" x2="252" y1="600.422" y2="600.422"/><line style="stroke:#181818;stroke-width:1" x1="252" x2="252" y1="600.422" y2="613.422"/><line style="stroke:#181818;stroke-width:1" x1="211" x2="252" y1="613.422" y2="613.422"/><polygon fill="#181818" points="221 609.422 211 613.422 221 617.422 217 613.422" style="stroke:#181818;stroke-width:1"/><text x="217" y="595.356" fill="#000" font-family="sans-serif" font-size="13" font-weight="bold" lengthAdjust="spacing" textLength="18">14</text><text x="239" y="595.356" fill="#000" font-family="sans-serif" font-size="13" lengthAdjust="spacing" textLength="104">refund account2</text><polygon fill="#181818" points="11 645.555 1 649.555 11 653.555 7 649.555" style="stroke:#181818;stroke-width:1"/><line style="stroke:#181818;stroke-width:1;stroke-dasharray:2,2" x1="5" x2="199" y1="649.555" y2="649.555"/><text x="17" y="644.489" fill="#000" font-family="sans-serif" font-size="13" font-weight="bold" lengthAdjust="spacing" textLength="18">15</text><text x="39" y="644.489" fill="#000" font-family="sans-serif" font-size="13" lengthAdjust="spacing" textLength="159">compensate(beneficiary)</text></g></svg>